<svg xmlns="http://www.w3.org/2000/svg" width="100" height="100" viewBox="0 0 512 512" style="overflow: visible;" data-bbox="51.60362389928923 47.99999648718858 408.7927364617208 406.6264709240909">
    <g id="logo-center" transform="translate(1.1368683772161603e-13 0)">
        <g id="slogan" style="font-style:normal;font-weight:400;font-size:32px;line-height:1;font-family:'Roboto Slab';font-variant-ligatures:none;text-align:center;text-anchor:middle" transform="translate(0 0)">
            <path id="path536454" style="font-style:normal;font-weight:400;font-size:32px;line-height:1;font-family:'Roboto Slab';font-variant-ligatures:none;text-align:center;text-anchor:middle" d="m 362.35937,0.328125 q -3.53125,0 -5.625,-2.34375 Q 354.65625,-4.375 354.65625,-8.125 v -0.6875 q 0,-3.609375 2.14062,-6 2.15625,-2.40625 5.09375,-2.40625 3.40625,0 5.15625,2.0625 1.76563,2.0625 1.76563,5.5 v 1.921875 h -10.96875 l -0.0469,0.078125 q 0.0469,2.4375 1.23438,4.015625 1.1875,1.5625 3.32812,1.5625 1.5625,0 2.73438,-0.4375 1.1875,-0.453125 2.04687,-1.234375 l 1.20313,2 q -0.90625,0.875 -2.40625,1.484375 -1.48438,0.59375 -3.57813,0.59375 z m -0.46875,-15.125 q -1.54687,0 -2.64062,1.3125 -1.09375,1.296875 -1.34375,3.265625 l 0.0312,0.07813 h 7.79687 v -0.40625 q 0,-1.8125 -0.96875,-3.03125 -0.96875,-1.21875 -2.875,-1.21875 z" stroke-width="0" stroke-linejoin="miter" stroke-miterlimit="2" fill="#ffeb3b" stroke="#ffeb3b" transform="translate(-1.1368683772161603e-13 375.88759625) translate(354.5528125 59.566874999999996) scale(0.86) translate(-354.65625 17.21875)"></path>
            <path id="path536456" style="font-style:normal;font-weight:400;font-size:32px;line-height:1;font-family:'Roboto Slab';font-variant-ligatures:none;text-align:center;text-anchor:middle" d="m 377.4375,-14.921875 -2.03125,0.3125 3.48437,9.625 0.28125,1.21875 h 0.0937 l 0.29688,-1.21875 3.375,-9.625 -2.04688,-0.3125 v -1.984375 h 6.53125 v 1.984375 L 386.03125,-14.6875 380.35937,0 h -2.32812 l -5.73438,-14.6875 -1.39062,-0.234375 v -1.984375 h 6.53125 z" stroke-width="0" stroke-linejoin="miter" stroke-miterlimit="2" fill="#ffeb3b" stroke="#ffeb3b" transform="translate(-1.1368683772161603e-13 375.88759625) translate(371.1078125 59.835625) scale(0.86) translate(-370.90625 16.90625)"></path>
            <path id="path536458" style="font-style:normal;font-weight:400;font-size:32px;line-height:1;font-family:'Roboto Slab';font-variant-ligatures:none;text-align:center;text-anchor:middle" d="m 397.04687,0.328125 q -3.53125,0 -5.625,-2.34375 Q 389.34375,-4.375 389.34375,-8.125 v -0.6875 q 0,-3.609375 2.14062,-6 2.15625,-2.40625 5.09375,-2.40625 3.40625,0 5.15625,2.0625 1.76563,2.0625 1.76563,5.5 v 1.921875 h -10.96875 l -0.0469,0.078125 q 0.0469,2.4375 1.23438,4.015625 1.1875,1.5625 3.32812,1.5625 1.5625,0 2.73438,-0.4375 1.1875,-0.453125 2.04687,-1.234375 l 1.20313,2 q -0.90625,0.875 -2.40625,1.484375 -1.48438,0.59375 -3.57813,0.59375 z m -0.46875,-15.125 q -1.54687,0 -2.64062,1.3125 -1.09375,1.296875 -1.34375,3.265625 l 0.0312,0.07813 h 7.79687 v -0.40625 q 0,-1.8125 -0.96875,-3.03125 -0.96875,-1.21875 -2.875,-1.21875 z" stroke-width="0" stroke-linejoin="miter" stroke-miterlimit="2" fill="#ffeb3b" stroke="#ffeb3b" transform="translate(-1.1368683772161603e-13 375.88759625) translate(389.5440625 59.566874999999996) scale(0.86) translate(-389.34375 17.21875)"></path>
            <path id="path536460" style="font-style:normal;font-weight:400;font-size:32px;line-height:1;font-family:'Roboto Slab';font-variant-ligatures:none;text-align:center;text-anchor:middle" d="m 406.51562,-14.921875 v -1.984375 h 5.29688 l 0.29687,2.453125 q 0.71875,-1.296875 1.76563,-2.03125 1.0625,-0.734375 2.42187,-0.734375 0.35938,0 0.73438,0.0625 0.39062,0.04687 0.59375,0.109375 l -0.40625,2.859375 -1.75,-0.09375 q -1.21875,0 -2.04688,0.578125 -0.82812,0.5625 -1.28125,1.59375 v 9.703125 l 2.54688,0.4375 V 0 h -8.17188 v -1.96875 l 2.54688,-0.4375 v -12.078125 z" stroke-width="0" stroke-linejoin="miter" stroke-miterlimit="2" fill="#ffeb3b" stroke="#ffeb3b" transform="translate(-1.1368683772161603e-13 375.88759625) translate(406.8918707 59.566874999999996) scale(0.86) translate(-406.51562 17.21875)"></path>
            <path id="path536462" style="font-style:normal;font-weight:400;font-size:32px;line-height:1;font-family:'Roboto Slab';font-variant-ligatures:none;text-align:center;text-anchor:middle" d="M 436.14062,-14.921875 434.625,-14.6875 428.1875,2.59375 q -0.64063,1.703125 -1.84375,2.96875 -1.20313,1.265625 -3.23438,1.265625 -0.35937,0 -0.9375,-0.09375 -0.57812,-0.078125 -0.89062,-0.15625 l 0.3125,-2.421875 q -0.0937,-0.015625 0.54687,0.03125 0.65625,0.046875 0.82813,0.046875 0.98437,0 1.59375,-0.859375 0.60937,-0.84375 1.0625,-1.953125 l 0.73437,-1.75 -5.57812,-14.34375 -1.54688,-0.25 v -1.984375 h 6.82813 v 1.984375 l -1.90625,0.3125 2.92187,8.34375 0.5625,2.15625 h 0.0937 l 3.51563,-10.5 -1.92188,-0.3125 v -1.984375 h 6.8125 z" stroke-width="0" stroke-linejoin="miter" stroke-miterlimit="2" fill="#ffeb3b" stroke="#ffeb3b" transform="translate(-1.1368683772161603e-13 375.88759625) translate(420.4099957 59.835625) scale(0.86) translate(-419.23437 16.90625)"></path>
            <path id="path536464" style="font-style:normal;font-weight:400;font-size:32px;line-height:1;font-family:'Roboto Slab';font-variant-ligatures:none;text-align:center;text-anchor:middle" d="m 443.64062,-20.984375 v 4.078125 h 3.20313 v 2.28125 h -3.20313 v 10.265625 q 0,1.1875 0.48438,1.671875 0.5,0.484375 1.3125,0.484375 0.40625,0 0.90625,-0.0625 0.51562,-0.078125 0.85937,-0.15625 L 447.625,-0.3125 q -0.4375,0.28125 -1.28125,0.453125 -0.84375,0.1875 -1.6875,0.1875 -1.875,0 -2.98438,-1.125 -1.10937,-1.140625 -1.10937,-3.5625 V -14.625 h -2.67188 v -2.28125 h 2.67188 v -4.078125 z" stroke-width="0" stroke-linejoin="miter" stroke-miterlimit="2" fill="#ffeb3b" stroke="#ffeb3b" transform="translate(-1.1368683772161603e-13 375.88759625) translate(439.0343707 56.3284375) scale(0.86) translate(-437.89062 20.984375)"></path>
            <path id="path536466" style="font-style:normal;font-weight:400;font-size:32px;line-height:1;font-family:'Roboto Slab';font-variant-ligatures:none;text-align:center;text-anchor:middle" d="m 449.59375,-1.96875 2.54687,-0.4375 v -19.546875 l -2.54687,-0.4375 V -24.375 h 5.625 v 9.71875 q 0.875,-1.21875 2.14062,-1.890625 1.26563,-0.671875 2.8125,-0.671875 2.71875,0 4.21875,1.625 1.5,1.625 1.5,5 v 8.1875 l 2.54688,0.4375 V 0 h -8.17188 v -1.96875 l 2.54688,-0.4375 V -10.625 q 0,-2.09375 -0.90625,-3.09375 -0.89063,-1 -2.67188,-1 -1.26562,0 -2.3125,0.609375 -1.03125,0.59375 -1.70312,1.625 V -2.40625 l 2.54687,0.4375 V 0 h -8.17187 z" stroke-width="0" stroke-linejoin="miter" stroke-miterlimit="2" fill="#ffeb3b" stroke="#ffeb3b" transform="translate(-1.1368683772161603e-13 375.88759625) translate(451.6790625 53.4125) scale(0.86) translate(-449.59375 24.375)"></path>
            <path id="path536468" style="font-style:normal;font-weight:400;font-size:32px;line-height:1;font-family:'Roboto Slab';font-variant-ligatures:none;text-align:center;text-anchor:middle" d="m 470.70312,-1.96875 2.54688,-0.4375 v -12.078125 l -2.54688,-0.4375 v -1.984375 h 5.625 v 14.5 l 2.54688,0.4375 V 0 h -8.17188 z m 5.625,-19.265625 H 473.25 V -24.375 h 3.07812 z" stroke-width="0" stroke-linejoin="miter" stroke-miterlimit="2" fill="#ffeb3b" stroke="#ffeb3b" transform="translate(-1.1368683772161603e-13 375.88759625) translate(472.4131207 53.4125) scale(0.86) translate(-470.70312 24.375)"></path>
            <path id="path536470" style="font-style:normal;font-weight:400;font-size:32px;line-height:1;font-family:'Roboto Slab';font-variant-ligatures:none;text-align:center;text-anchor:middle" d="m 480.75,-1.96875 2.54687,-0.4375 v -12.078125 l -2.54687,-0.4375 v -1.984375 h 5.29687 l 0.21875,2.515625 q 0.84375,-1.34375 2.10938,-2.078125 1.28125,-0.75 2.90625,-0.75 2.73437,0 4.23437,1.609375 1.5,1.59375 1.5,4.9375 v 8.265625 l 2.54688,0.4375 V 0 h -8.17188 v -1.96875 l 2.54688,-0.4375 v -8.203125 q 0,-2.234375 -0.89063,-3.171875 -0.875,-0.9375 -2.6875,-0.9375 -1.32812,0 -2.35937,0.640625 -1.01563,0.640625 -1.625,1.75 v 9.921875 l 2.54687,0.4375 V 0 H 480.75 Z" stroke-width="0" stroke-linejoin="miter" stroke-miterlimit="2" fill="#ffeb3b" stroke="#ffeb3b" transform="translate(-1.1368683772161603e-13 375.88759625) translate(483.63343749999996 59.566874999999996) scale(0.86) translate(-480.75 17.21875)"></path>
            <path id="path536472" style="font-style:normal;font-weight:400;font-size:32px;line-height:1;font-family:'Roboto Slab';font-variant-ligatures:none;text-align:center;text-anchor:middle" d="m 501.71875,-8.140625 q 0,-4.078125 1.78125,-6.578125 1.78125,-2.5 4.92187,-2.5 1.59375,0 2.79688,0.625 1.20312,0.625 2.01562,1.8125 l 0.28125,-2.125 h 2.59375 v 16.6875 q 0,3.28125 -1.82812,5.15625 -1.82813,1.890625 -5.20313,1.890625 -1.21875,0 -2.64062,-0.34375 -1.42188,-0.328125 -2.5,-0.90625 L 504.73437,3.1875 q 0.85938,0.453125 2.03125,0.75 1.17188,0.296875 2.28125,0.296875 2.0625,0 3.01563,-1.15625 0.96875,-1.15625 0.96875,-3.296875 v -1.609375 q -0.82813,1.0625 -1.98438,1.609375 -1.15625,0.546875 -2.65625,0.546875 -3.10937,0 -4.89062,-2.25 -1.78125,-2.25 -1.78125,-5.890625 z m 3.07812,0.328125 q 0,2.546875 1.07813,4.09375 1.07812,1.546875 3.28125,1.546875 1.39062,0 2.32812,-0.625 0.9375,-0.640625 1.54688,-1.796875 V -12.375 q -0.59375,-1.078125 -1.54688,-1.703125 -0.95312,-0.640625 -2.29687,-0.640625 -2.20313,0 -3.29688,1.84375 -1.09375,1.84375 -1.09375,4.734375 z" stroke-width="0" stroke-linejoin="miter" stroke-miterlimit="2" fill="#ffeb3b" stroke="#ffeb3b" transform="translate(-1.1368683772161603e-13 375.88759625) translate(504.2465624999999 59.566874999999996) scale(0.86) translate(-501.71875 17.21875)"></path>
            <path id="path536474" style="font-style:normal;font-weight:400;font-size:32px;line-height:1;font-family:'Roboto Slab';font-variant-ligatures:none;text-align:center;text-anchor:middle" d="m 527.76562,-1.96875 2.54688,-0.4375 v -12.078125 l -2.54688,-0.4375 v -1.984375 h 5.625 v 14.5 l 2.54688,0.4375 V 0 h -8.17188 z m 5.625,-19.265625 H 530.3125 V -24.375 h 3.07812 z" stroke-width="0" stroke-linejoin="miter" stroke-miterlimit="2" fill="#ffeb3b" stroke="#ffeb3b" transform="translate(-1.1368683772161603e-13 375.88759625) translate(529.2268707 53.4125) scale(0.86) translate(-527.76562 24.375)"></path>
            <path id="path536476" style="font-style:normal;font-weight:400;font-size:32px;line-height:1;font-family:'Roboto Slab';font-variant-ligatures:none;text-align:center;text-anchor:middle" d="m 551.20312,-11.59375 h -2.3125 l -0.5,-2.03125 q -0.5625,-0.53125 -1.42187,-0.84375 -0.84375,-0.328125 -1.92188,-0.328125 -1.64062,0 -2.4375,0.71875 -0.79687,0.71875 -0.79687,1.734375 0,1 0.70312,1.578125 0.70313,0.578125 2.85938,1.03125 3.20312,0.6875 4.76562,1.875 1.5625,1.171875 1.5625,3.15625 0,2.25 -1.82812,3.640625 -1.8125,1.390625 -4.75,1.390625 -1.92188,0 -3.45313,-0.4375 -1.53125,-0.453125 -2.73437,-1.296875 l -0.0156,-3.859375 h 2.3125 L 541.8125,-3 q 0.53125,0.484375 1.4375,0.703125 0.92187,0.21875 1.875,0.21875 1.64062,0 2.5625,-0.65625 0.9375,-0.671875 0.9375,-1.75 0,-1.015625 -0.78125,-1.671875 -0.76563,-0.65625 -2.92188,-1.140625 -3.07812,-0.671875 -4.64062,-1.828125 -1.5625,-1.15625 -1.5625,-3.125 0,-2.0625 1.75,-3.515625 1.76562,-1.453125 4.57812,-1.453125 1.92188,0 3.45313,0.5 1.53125,0.5 2.54687,1.390625 z" stroke-width="0" stroke-linejoin="miter" stroke-miterlimit="2" fill="#ffeb3b" stroke="#ffeb3b" transform="translate(-1.1368683772161603e-13 375.88759625) translate(541.2265624999999 59.566874999999996) scale(0.86) translate(-538.71875 17.21875)"></path>
            <path id="path536478" style="font-style:normal;font-weight:400;font-size:32px;line-height:1;font-family:'Roboto Slab';font-variant-ligatures:none;text-align:center;text-anchor:middle" d="m 577.98437,-7.8125 q 0,3.65625 -1.76562,5.90625 -1.75,2.234375 -4.82813,2.234375 -1.65625,0 -2.875,-0.625 -1.21875,-0.640625 -2.03125,-1.875 L 566.20312,0 h -2.65625 V -21.953125 L 561,-22.390625 V -24.375 h 5.625 v 9.46875 q 0.79687,-1.125 1.96875,-1.71875 1.1875,-0.59375 2.76562,-0.59375 3.125,0 4.875,2.5 1.75,2.5 1.75,6.578125 z m -3.09375,-0.328125 q 0,-2.921875 -1.0625,-4.75 -1.0625,-1.828125 -3.25,-1.828125 -1.42187,0 -2.40625,0.6875 -0.96875,0.6875 -1.54687,1.84375 v 7.46875 q 0.57812,1.171875 1.5625,1.859375 1,0.6875 2.42187,0.6875 2.17188,0 3.21875,-1.546875 1.0625,-1.546875 1.0625,-4.09375 z" stroke-width="0" stroke-linejoin="miter" stroke-miterlimit="2" fill="#ffeb3b" stroke="#ffeb3b" transform="translate(-1.1368683772161603e-13 375.88759625) translate(562.9684374999999 53.4125) scale(0.86) translate(-561 24.375)"></path>
            <path id="path536480" style="font-style:normal;font-weight:400;font-size:32px;line-height:1;font-family:'Roboto Slab';font-variant-ligatures:none;text-align:center;text-anchor:middle" d="m 581.09375,-8.609375 q 0,-3.75 2.03125,-6.171875 2.03125,-2.4375 5.51562,-2.4375 3.5,0 5.53125,2.421875 2.04688,2.421875 2.04688,6.1875 v 0.34375 q 0,3.78125 -2.03125,6.1875 -2.03125,2.40625 -5.51563,2.40625 -3.51562,0 -5.54687,-2.40625 -2.03125,-2.421875 -2.03125,-6.1875 z m 3.07812,0.34375 q 0,2.6875 1.125,4.4375 1.14063,1.75 3.375,1.75 2.1875,0 3.32813,-1.75 1.14062,-1.75 1.14062,-4.4375 v -0.34375 q 0,-2.65625 -1.14062,-4.421875 -1.14063,-1.765625 -3.35938,-1.765625 -2.21875,0 -3.34375,1.765625 -1.125,1.765625 -1.125,4.421875 z" stroke-width="0" stroke-linejoin="miter" stroke-miterlimit="2" fill="#ffeb3b" stroke="#ffeb3b" transform="translate(-1.1368683772161603e-13 375.88759625) translate(582.8290625 59.566874999999996) scale(0.86) translate(-581.09375 17.21875)"></path>
            <path id="path536482" style="font-style:normal;font-weight:400;font-size:32px;line-height:1;font-family:'Roboto Slab';font-variant-ligatures:none;text-align:center;text-anchor:middle" d="m 599.03125,-8.609375 q 0,-3.75 2.03125,-6.171875 2.03125,-2.4375 5.51562,-2.4375 3.5,0 5.53125,2.421875 2.04688,2.421875 2.04688,6.1875 v 0.34375 q 0,3.78125 -2.03125,6.1875 -2.03125,2.40625 -5.51563,2.40625 -3.51562,0 -5.54687,-2.40625 -2.03125,-2.421875 -2.03125,-6.1875 z m 3.07812,0.34375 q 0,2.6875 1.125,4.4375 1.14063,1.75 3.375,1.75 2.1875,0 3.32813,-1.75 1.14062,-1.75 1.14062,-4.4375 v -0.34375 q 0,-2.65625 -1.14062,-4.421875 -1.14063,-1.765625 -3.35938,-1.765625 -2.21875,0 -3.34375,1.765625 -1.125,1.765625 -1.125,4.421875 z" stroke-width="0" stroke-linejoin="miter" stroke-miterlimit="2" fill="#ffeb3b" stroke="#ffeb3b" transform="translate(-1.1368683772161603e-13 375.88759625) translate(600.8353125 59.566874999999996) scale(0.86) translate(-599.03125 17.21875)"></path>
            <path id="path536484" style="font-style:normal;font-weight:400;font-size:32px;line-height:1;font-family:'Roboto Slab';font-variant-ligatures:none;text-align:center;text-anchor:middle" d="M 616.21875,-22.390625 V -24.375 h 5.625 v 14.125 h 1.96875 l 3.60937,-4.46875 -1.54687,-0.203125 v -1.984375 h 7.07812 v 1.984375 l -2.0625,0.40625 -4.45312,5.3125 5.42187,6.859375 1.92188,0.375 V 0 h -7.01563 v -1.96875 l 1.57813,-0.203125 -4.48438,-5.625 h -2.01562 v 5.390625 l 2.54687,0.4375 V 0 h -8.17187 v -1.96875 l 2.54687,-0.4375 v -19.546875 z" stroke-width="0" stroke-linejoin="miter" stroke-miterlimit="2" fill="#ffeb3b" stroke="#ffeb3b" transform="translate(-1.1368683772161603e-13 375.88759625) translate(618.1965625 53.4125) scale(0.86) translate(-616.21875 24.375)"></path>
            <path id="path536486" style="font-style:normal;font-weight:400;font-size:32px;line-height:1;font-family:'Roboto Slab';font-variant-ligatures:none;text-align:center;text-anchor:middle" d="m 643.48437,0.328125 q -3.53125,0 -5.625,-2.34375 Q 635.78125,-4.375 635.78125,-8.125 v -0.6875 q 0,-3.609375 2.14062,-6 2.15625,-2.40625 5.09375,-2.40625 3.40625,0 5.15625,2.0625 1.76563,2.0625 1.76563,5.5 v 1.921875 h -10.96875 l -0.0469,0.078125 q 0.0469,2.4375 1.23438,4.015625 1.1875,1.5625 3.32812,1.5625 1.5625,0 2.73438,-0.4375 1.1875,-0.453125 2.04687,-1.234375 l 1.20313,2 q -0.90625,0.875 -2.40625,1.484375 -1.48438,0.59375 -3.57813,0.59375 z m -0.46875,-15.125 q -1.54687,0 -2.64062,1.3125 -1.09375,1.296875 -1.34375,3.265625 l 0.0312,0.07813 h 7.79687 v -0.40625 q 0,-1.8125 -0.96875,-3.03125 -0.96875,-1.21875 -2.875,-1.21875 z" stroke-width="0" stroke-linejoin="miter" stroke-miterlimit="2" fill="#ffeb3b" stroke="#ffeb3b" transform="translate(-1.1368683772161603e-13 375.88759625) translate(637.6003125 59.566874999999996) scale(0.86) translate(-635.78125 17.21875)"></path>
            <path id="path536488" style="font-style:normal;font-weight:400;font-size:32px;line-height:1;font-family:'Roboto Slab';font-variant-ligatures:none;text-align:center;text-anchor:middle" d="m 664.34375,-2.015625 q -0.82813,1.15625 -2.03125,1.75 -1.1875,0.59375 -2.76563,0.59375 -3.09375,0 -4.84375,-2.234375 -1.73437,-2.25 -1.73437,-5.90625 v -0.328125 q 0,-4.078125 1.73437,-6.578125 1.75,-2.5 4.875,-2.5 1.5,0 2.64063,0.5625 1.15625,0.546875 1.96875,1.59375 v -6.890625 l -2.54688,-0.4375 V -24.375 h 2.54688 3.07812 v 21.96875 l 2.54688,0.4375 V 0 h -5.21875 z M 656.04687,-7.8125 q 0,2.546875 1.04688,4.09375 1.04687,1.546875 3.23437,1.546875 1.375,0 2.3125,-0.625 0.9375,-0.625 1.54688,-1.765625 v -7.84375 q -0.59375,-1.0625 -1.54688,-1.6875 -0.95312,-0.625 -2.28125,-0.625 -2.20312,0 -3.26562,1.828125 -1.04688,1.828125 -1.04688,4.75 z" stroke-width="0" stroke-linejoin="miter" stroke-miterlimit="2" fill="#ffeb3b" stroke="#ffeb3b" transform="translate(-1.1368683772161603e-13 375.88759625) translate(654.9615625 53.4125) scale(0.86) translate(-652.96875 24.375)"></path>
        </g>
        <g id="title" style="font-style:normal;font-weight:700;font-size:72px;line-height:1;font-family:'Brandmark1 Bold';font-variant-ligatures:normal;text-align:center;text-anchor:middle" transform="translate(0 0)">
            <path id="path536491" style="font-style:normal;font-weight:700;font-size:72px;line-height:1;font-family:'Brandmark1 Bold';font-variant-ligatures:normal;text-align:center;text-anchor:middle" d="m 399.40719,-53.64 h -19.224 V 2.52 h 21.168 c 6.192,0 11.088,-1.512 14.544,-4.536 3.312,-2.88 5.04,-6.984 5.04,-11.88 0,-4.104 -1.296,-7.704 -3.744,-10.512 -1.008,-1.152 -2.304,-2.16 -3.744,-3.024 1.008,-0.792 1.872,-1.8 2.592,-2.88 1.584,-2.448 2.376,-5.328 2.376,-8.352 0,-2.52 -0.504,-4.752 -1.44,-6.696 -0.936,-1.944 -2.304,-3.6 -4.176,-4.896 -3.168,-2.232 -7.704,-3.384 -13.392,-3.384 z m 1.368,45.432 h -9.288 v -12.888 h 8.352 c 3.24,0 5.832,0.648 7.416,1.872 1.44,1.152 2.088,2.664 2.088,4.824 0,2.016 -0.648,3.528 -2.016,4.536 -1.44,1.08 -3.672,1.656 -6.552,1.656 z m -1.296,-23.4 h -7.992 v -11.304 l 7.272,-0.072 c 3.024,0 5.256,0.576 6.624,1.656 0.36,0.288 1.584,1.296 1.584,3.888 0,2.016 -0.648,3.528 -1.944,4.464 -1.296,0.864 -3.24,1.368 -5.544,1.368 z" stroke-width="0" stroke-linejoin="miter" stroke-miterlimit="2" fill="#ffeb3b" stroke="#ffeb3b" transform="translate(0 299.05825625) translate(263.1927537500001 15.9332) scale(1.67) translate(-380.18319 53.64)"></path>
            <path id="path536493" style="font-style:normal;font-weight:700;font-size:72px;line-height:1;font-family:'Brandmark1 Bold';font-variant-ligatures:normal;text-align:center;text-anchor:middle" d="m 443.45431,2.952 c 2.736,0 5.4,-0.504 7.992,-1.584 2.448,-1.008 4.608,-2.52 6.48,-4.392 1.872,-1.872 3.384,-4.104 4.392,-6.552 1.08,-2.52 1.656,-5.184 1.656,-7.992 0,-2.736 -0.576,-5.4 -1.656,-7.992 -1.008,-2.448 -2.52,-4.608 -4.392,-6.48 -1.872,-1.872 -4.104,-3.384 -6.48,-4.392 -2.592,-1.08 -5.256,-1.656 -7.992,-1.656 -2.808,0 -5.472,0.576 -7.992,1.656 -2.448,1.008 -4.68,2.52 -6.552,4.392 -1.872,1.872 -3.384,4.104 -4.392,6.48 -1.08,2.592 -1.584,5.256 -1.584,7.992 0,2.808 0.504,5.472 1.584,7.992 1.008,2.448 2.52,4.68 4.392,6.552 1.872,1.872 4.104,3.384 6.552,4.392 2.52,1.08 5.184,1.584 7.992,1.584 z m 0,-30.24 c 5.328,0 9.72,4.392 9.72,9.72 0,5.4 -4.392,9.72 -9.72,9.72 -5.4,0 -9.72,-4.32 -9.72,-9.72 0,-5.328 4.32,-9.72 9.72,-9.72 z" stroke-width="0" stroke-linejoin="miter" stroke-miterlimit="2" fill="#ffeb3b" stroke="#ffeb3b" transform="translate(0 299.05825625) translate(344.60712415 41.90504) scale(1.67) translate(-422.93431 38.088)"></path>
            <path id="path536495" style="font-style:normal;font-weight:700;font-size:72px;line-height:1;font-family:'Brandmark1 Bold';font-variant-ligatures:normal;text-align:center;text-anchor:middle" d="m 486.20431,2.952 c 2.736,0 5.4,-0.504 7.992,-1.584 2.448,-1.008 4.608,-2.52 6.48,-4.392 1.872,-1.872 3.384,-4.104 4.392,-6.552 1.08,-2.52 1.656,-5.184 1.656,-7.992 0,-2.736 -0.576,-5.4 -1.656,-7.992 -1.008,-2.448 -2.52,-4.608 -4.392,-6.48 -1.872,-1.872 -4.104,-3.384 -6.48,-4.392 -2.592,-1.08 -5.256,-1.656 -7.992,-1.656 -2.808,0 -5.472,0.576 -7.992,1.656 -2.448,1.008 -4.68,2.52 -6.552,4.392 -1.872,1.872 -3.384,4.104 -4.392,6.48 -1.08,2.592 -1.584,5.256 -1.584,7.992 0,2.808 0.504,5.472 1.584,7.992 1.008,2.448 2.52,4.68 4.392,6.552 1.872,1.872 4.104,3.384 6.552,4.392 2.52,1.08 5.184,1.584 7.992,1.584 z m 0,-30.24 c 5.328,0 9.72,4.392 9.72,9.72 0,5.4 -4.392,9.72 -9.72,9.72 -5.4,0 -9.72,-4.32 -9.72,-9.72 0,-5.328 4.32,-9.72 9.72,-9.72 z" stroke-width="0" stroke-linejoin="miter" stroke-miterlimit="2" fill="#ffeb3b" stroke="#ffeb3b" transform="translate(0 299.05825625) translate(426.0196241499999 41.90504) scale(1.67) translate(-465.68431 38.088)"></path>
            <path id="path536497" style="font-style:normal;font-weight:700;font-size:72px;line-height:1;font-family:'Brandmark1 Bold';font-variant-ligatures:normal;text-align:center;text-anchor:middle" d="m 525.71431,-12.384 9.576,14.904 h 12.672 l -14.688,-22.824 15.624,-17.28 h -13.896 l -13.608,15.192 v -33.12 h -10.872 V 2.52 h 10.872 V -7.704 Z" stroke-width="0" stroke-linejoin="miter" stroke-miterlimit="2" fill="#ffeb3b" stroke="#ffeb3b" transform="translate(0 299.05825625) translate(510.9190841499999 12.806960000000004) scale(1.67) translate(-510.52231 55.512)"></path>
            <path id="path536499" style="font-style:normal;font-weight:700;font-size:72px;line-height:1;font-family:'Brandmark1 Bold';font-variant-ligatures:normal;text-align:center;text-anchor:middle" d="M 592.71594,-29.808 V 2.52 h 11.304 v -56.16 h -10.224 l -17.424,30.6 -17.424,-30.6 h -10.296 V 2.52 h 11.376 v -32.256 l 12.744,21.96 h 7.128 z" stroke-width="0" stroke-linejoin="miter" stroke-miterlimit="2" fill="#ffeb3b" stroke="#ffeb3b" transform="translate(0 299.05825625) translate(584.6155662499997 15.9332) scale(1.67) translate(-548.65194 53.64)"></path>
            <path id="path536501" style="font-style:normal;font-weight:700;font-size:72px;line-height:1;font-family:'Brandmark1 Bold';font-variant-ligatures:normal;text-align:center;text-anchor:middle" d="m 627.85194,2.736 c 2.88,0 5.616,-0.576 8.208,-1.656 2.448,-1.152 4.68,-2.664 6.552,-4.68 l -7.56,-7.2 c -1.872,2.016 -4.464,3.096 -7.2,3.096 -3.528,0 -6.552,-1.8 -8.352,-4.608 h 28.656 v -5.184 c 0,-5.472 -2.088,-10.512 -5.976,-14.4 -3.816,-3.816 -8.928,-5.904 -14.328,-5.904 -5.4,0 -10.512,2.088 -14.328,5.904 -3.816,3.888 -5.976,8.928 -5.976,14.4 0,5.4 2.16,10.512 5.976,14.328 3.816,3.816 8.928,5.904 14.328,5.904 z m 8.352,-25.488 h -16.704 c 1.8,-2.736 4.824,-4.608 8.352,-4.608 3.528,0 6.624,1.872 8.352,4.608 z" stroke-width="0" stroke-linejoin="miter" stroke-miterlimit="2" fill="#ffeb3b" stroke="#ffeb3b" transform="translate(0 299.05825625) translate(692.9918862499998 42.38600000000001) scale(1.67) translate(-607.54794 37.8)"></path>
        </g>
    </g>
</svg>